<mxfile host="app.diagrams.net" modified="2024-04-04T16:32:22.465Z" agent="Mozilla/5.0 (Windows NT 10.0; Win64; x64; rv:124.0) Gecko/20100101 Firefox/124.0" version="24.2.2" etag="RU1ysjfLg39iz0nzybJn" type="github">
  <diagram name="Страница — 1" id="2L-f-YnGmS6FJq7zyuFf">
    <mxGraphModel>
      <root>
        <mxCell id="0" />
        <mxCell id="1" parent="0" />
      </root>
    </mxGraphModel>
  </diagram>
</mxfile>
